<?xml version="1.0" standalone="no"?>
<!DOCTYPE svg PUBLIC "-//W3C//DTD SVG 20010904//EN"
 "http://www.w3.org/TR/2001/REC-SVG-20010904/DTD/svg10.dtd">
<svg version="1.0" xmlns="http://www.w3.org/2000/svg"
 width="2160.000000pt" height="1080.000000pt" viewBox="0 0 2160.000000 1080.000000"
 preserveAspectRatio="xMidYMid meet">

<g transform="translate(0.000000,1080.000000) scale(0.100000,-0.100000)"
fill="#000000" stroke="none">
<path d="M0 5400 l0 -5400 10800 0 10800 0 0 5400 0 5400 -10800 0 -10800 0 0
-5400z m12613 2882 c-100 -97 -397 -387 -660 -643 -263 -256 -497 -483 -520
-503 l-42 -38 -1 681 0 681 703 -1 702 0 -182 -177z m-1303 -572 l0 -690 -452
1 c-249 1 -541 4 -648 8 l-195 6 145 155 c80 85 224 238 320 340 96 102 321
339 499 528 178 188 325 342 327 342 2 0 4 -310 4 -690z m1580 430 c0 -6 -574
-334 -605 -346 -16 -7 95 104 329 328 l89 85 94 -31 c51 -17 93 -33 93 -36z
m-3214 -247 c82 -87 212 -225 288 -308 77 -82 160 -171 185 -198 l46 -47 -160
-160 -160 -160 -121 0 c-66 0 -209 3 -318 7 l-196 6 0 503 1 503 132 4 c73 1
137 4 143 5 6 1 78 -69 160 -155z m-528 -208 c-2 0 -75 1 -163 3 l-160 4 160
154 160 153 3 -156 c1 -86 1 -157 0 -158z m2142 -758 c0 -3 -511 -1389 -547
-1486 -9 -22 -28 -4 -279 260 -926 974 -1149 1210 -1152 1220 -2 5 419 9 987
9 545 0 991 -2 991 -3z m17 -2334 c-4 -3 -604 327 -638 351 -16 11 83 289 561
1583 l75 202 3 -1066 c1 -587 0 -1068 -1 -1070z m-3507 -953 l0 -70 -420 0
-420 0 0 -60 0 -60 260 0 260 0 0 -70 0 -70 -260 0 -260 0 0 -135 0 -135 -80
0 -80 0 0 335 0 335 500 0 500 0 0 -70z m-1276 -390 c3 0 6 97 6 215 l0 215
65 0 65 0 0 -326 0 -325 -132 69 c-222 116 -725 372 -732 372 -3 0 -6 -94 -6
-210 l0 -210 -70 0 -70 0 0 321 0 320 434 -220 c238 -122 436 -221 440 -221z
m2126 220 c237 -121 433 -220 436 -220 2 0 4 97 4 215 l0 215 70 0 70 0 0
-326 0 -326 -435 221 -435 221 -2 -212 -3 -213 -70 0 -70 0 -3 323 c-1 177 0
322 2 322 2 0 198 -99 436 -220z m3929 -9 c139 -100 258 -184 265 -186 6 -3
142 90 301 205 l290 210 3 -313 c1 -171 0 -318 -3 -325 -3 -9 -24 -12 -72 -10
l-68 3 -5 187 -5 187 -214 -155 c-117 -85 -218 -154 -223 -154 -5 0 -105 70
-223 155 -117 85 -216 155 -219 155 -3 0 -6 -85 -6 -190 l0 -190 -70 0 -70 0
0 326 0 326 33 -24 c17 -14 146 -107 286 -207z m1766 10 l430 -219 3 214 2
214 75 0 75 0 0 -325 c0 -179 -3 -325 -6 -325 -3 0 -195 97 -428 215 -233 118
-428 215 -434 215 -9 0 -12 -57 -12 -210 l0 -210 -70 0 -70 0 0 325 c0 179 1
325 3 325 1 0 196 -98 432 -219z m-6295 -111 l0 -320 -70 0 -70 0 0 320 0 320
70 0 70 0 0 -320z m1490 0 l0 -320 -70 0 -70 0 0 320 0 320 70 0 70 0 0 -320z
m1110 255 l0 -65 -210 0 -210 0 0 -255 0 -255 -70 0 -70 0 0 255 0 255 -210 0
-210 0 0 65 0 65 490 0 490 0 0 -65z m3090 -255 l0 -320 -70 0 -70 0 0 320 0
320 70 0 70 0 0 -320z m2190 292 c77 -25 141 -76 172 -136 27 -51 37 -212 18
-272 -36 -110 -127 -175 -270 -194 -41 -5 -229 -10 -417 -10 l-343 0 0 321 0
321 388 -4 c360 -5 392 -6 452 -26z m-10450 -292 l0 -310 -65 0 -65 0 0 310 0
310 65 0 65 0 0 -310z m6139 262 c72 -36 76 -50 79 -275 2 -177 0 -206 -15
-237 -33 -65 -36 -65 -453 -65 -504 0 -473 -20 -468 315 l3 210 26 26 c15 14
42 30 60 34 19 4 192 8 384 9 315 1 353 -1 384 -17z m1241 -1022 l0 -40 110 0
c103 0 110 -1 110 -20 0 -19 -7 -20 -110 -20 l-110 0 0 -45 0 -45 110 0 110 0
0 -25 0 -25 -111 0 c-140 0 -149 4 -149 76 0 39 -4 56 -15 60 -8 4 -15 14 -15
24 0 10 7 20 15 24 9 3 15 19 15 41 0 28 4 35 20 35 17 0 20 -7 20 -40z
m-4880 5 c0 -24 -2 -25 -70 -25 l-70 0 0 -95 c0 -95 0 -95 -25 -95 -25 0 -25
0 -25 95 l0 95 -70 0 c-68 0 -70 1 -70 25 l0 25 165 0 165 0 0 -25z m1470 5
c0 -19 -7 -20 -110 -20 -91 0 -110 -3 -110 -15 0 -12 19 -15 110 -15 103 0
110 -1 110 -20 0 -19 -7 -20 -110 -20 l-110 0 0 -70 c0 -63 -2 -70 -20 -70
-19 0 -20 7 -20 119 0 86 3 121 13 124 6 3 65 6 130 6 111 1 117 0 117 -19z
m1030 0 c0 -11 -7 -20 -15 -20 -8 0 -15 9 -15 20 0 11 7 20 15 20 8 0 15 -9
15 -20z m1080 -5 l0 -25 -120 0 -120 0 0 -25 c0 -24 2 -25 75 -25 68 0 75 -2
75 -20 0 -18 -7 -20 -75 -20 -73 0 -75 -1 -75 -25 l0 -25 120 0 120 0 0 -30 0
-30 -145 0 -145 0 0 125 0 125 145 0 145 0 0 -25z m308 -97 l-3 -123 -113 -3
c-149 -4 -152 -2 -152 93 0 92 4 95 134 95 l96 0 0 30 c0 23 4 30 20 30 20 0
20 -5 18 -122z m1282 102 c0 -13 -7 -20 -20 -20 -13 0 -20 7 -20 20 0 13 7 20
20 20 13 0 20 -7 20 -20z m-4926 -66 c23 -22 20 -54 -4 -54 -11 0 -20 7 -20
15 0 12 -16 15 -80 15 l-80 0 0 -69 c0 -60 -2 -69 -17 -67 -15 2 -18 16 -21
89 l-3 87 105 0 c82 0 108 -3 120 -16z m290 10 c13 -5 16 -23 16 -91 l0 -85
-116 4 c-101 3 -117 6 -130 22 -18 26 -18 61 2 80 12 12 37 16 110 16 56 0 94
4 94 10 0 6 -42 10 -105 10 -98 0 -105 1 -105 20 0 19 7 20 109 20 60 0 116
-3 125 -6z m324 -6 c7 -7 12 -43 12 -90 0 -71 -2 -78 -20 -78 -18 0 -20 7 -20
70 l0 70 -95 0 -95 0 0 -70 c0 -63 -2 -70 -20 -70 -19 0 -20 7 -20 90 l0 90
123 0 c82 0 127 -4 135 -12z m302 -8 c0 -19 -7 -20 -105 -20 -63 0 -105 -4
-105 -10 0 -6 38 -10 94 -10 105 0 126 -10 126 -58 0 -53 -9 -57 -137 -57
-115 0 -118 1 -121 23 -3 22 -2 22 107 22 67 0 111 4 111 10 0 6 -34 10 -82
10 -46 0 -93 3 -106 6 -27 8 -39 46 -23 80 10 23 14 24 126 24 108 0 115 -1
115 -20z m598 8 c7 -7 12 -40 12 -80 0 -56 -3 -69 -19 -78 -25 -13 -191 -13
-225 0 -24 9 -26 14 -26 74 0 100 -5 96 129 96 78 0 121 -4 129 -12z m280 0
c17 -17 15 -58 -2 -58 -8 0 -16 7 -20 15 -4 11 -23 15 -80 15 l-75 0 -3 -67
c-2 -55 -6 -68 -20 -71 -16 -3 -18 6 -18 87 l0 91 103 0 c67 0 107 -4 115 -12z
m380 -80 c3 -83 2 -88 -18 -88 -18 0 -20 6 -20 70 l0 70 -50 0 -50 0 0 -70 c0
-63 -2 -70 -20 -70 -18 0 -20 7 -20 70 l0 70 -55 0 -55 0 0 -71 c0 -62 -2 -70
-17 -67 -15 3 -18 17 -21 91 l-3 87 163 -2 163 -3 3 -87z m82 2 c0 -73 -3 -90
-15 -90 -12 0 -15 17 -15 90 0 73 3 90 15 90 12 0 15 -17 15 -90z m308 78 c7
-7 12 -43 12 -90 0 -71 -2 -78 -20 -78 -18 0 -20 7 -20 70 l0 70 -95 0 -95 0
0 -70 c0 -63 -2 -70 -20 -70 -19 0 -20 7 -20 90 l0 90 123 0 c82 0 127 -4 135
-12z m320 -110 l-3 -123 -127 -3 c-123 -2 -128 -2 -128 18 0 19 6 20 110 20
103 0 110 1 110 20 0 19 -7 20 -105 20 -104 0 -106 0 -115 26 -6 14 -10 40
-10 59 0 19 4 45 10 59 l10 26 125 0 126 0 -3 -122z m842 57 l0 -65 95 0 95 0
0 65 c0 58 2 65 20 65 19 0 20 -7 20 -90 l0 -90 -113 0 c-145 0 -148 2 -155
103 -4 73 -4 77 17 77 19 0 21 -5 21 -65z m520 45 c0 -19 -7 -20 -100 -20
l-100 0 0 -45 0 -45 100 0 100 0 0 -25 0 -25 -101 0 c-135 0 -139 3 -139 94 0
40 3 76 7 79 3 4 57 7 120 7 106 0 113 -1 113 -20z m288 -72 l3 -88 -111 0
c-97 0 -112 2 -130 20 -22 22 -26 51 -10 81 10 17 22 19 110 19 60 0 100 4
100 10 0 6 -42 10 -105 10 -99 0 -105 1 -105 20 0 20 5 20 123 18 l122 -3 3
-87z m392 2 c0 -83 -1 -90 -20 -90 -19 0 -20 7 -20 90 0 83 1 90 20 90 19 0
20 -7 20 -90z m311 63 c14 -37 6 -132 -12 -144 -23 -14 -212 -11 -233 4 -23
17 -33 100 -17 140 l11 27 120 0 120 0 11 -27z m317 -65 c3 -83 2 -88 -18 -88
-18 0 -20 6 -20 70 l0 70 -95 0 -95 0 0 -70 c0 -63 -2 -70 -20 -70 -19 0 -20
7 -20 90 l0 91 133 -3 132 -3 3 -87z"/>
<path d="M15237 3543 c-4 -3 -7 -89 -7 -190 l0 -183 293 0 c323 0 371 7 419
57 35 37 48 73 48 134 0 96 -49 159 -140 178 -55 12 -602 16 -613 4z"/>
<path d="M10902 3338 l3 -173 325 0 325 0 3 173 2 172 -330 0 -330 0 2 -172z"/>
<path d="M11640 2475 l0 -46 93 3 92 3 3 43 3 42 -95 0 -96 0 0 -45z"/>
<path d="M8310 2440 c0 -6 37 -10 90 -10 53 0 90 4 90 10 0 6 -37 10 -90 10
-53 0 -90 -4 -90 -10z"/>
<path d="M9520 2475 l0 -45 95 0 95 0 0 45 0 45 -95 0 -95 0 0 -45z"/>
<path d="M10884 2506 c-3 -8 -4 -27 -2 -43 l3 -28 93 -3 92 -3 0 46 0 45 -90
0 c-69 0 -92 -3 -96 -14z"/>
<path d="M12540 2440 c0 -6 37 -10 90 -10 53 0 90 4 90 10 0 6 -37 10 -90 10
-53 0 -90 -4 -90 -10z"/>
<path d="M13240 2475 l0 -45 90 0 90 0 0 45 0 45 -90 0 -90 0 0 -45z"/>
</g>
</svg>
